<svg version="1.1" xmlns="http://www.w3.org/2000/svg" viewBox="0 0 254.43956473320213 259.4207750920086" width="254.43956473320213" height="259.4207750920086" filter="invert(93%) hue-rotate(180deg)">
  <!-- svg-source:excalidraw -->
  
  <defs>
    <style class="style-fonts">
      @font-face {
        font-family: "Virgil";
        src: url("https://excalidraw.com/Virgil.woff2");
      }
      @font-face {
        font-family: "Cascadia";
        src: url("https://excalidraw.com/Cascadia.woff2");
      }
      @font-face {
        font-family: "Assistant";
        src: url("https://excalidraw.com/Assistant-Regular.woff2");
      }
    </style>
    
  </defs>
  <g stroke-linecap="round" transform="translate(69.66828602884561 10) rotate(0 24.557734602936762 24.5)"><path d="M18.43 0.66 C23.11 -0.98, 30.38 -0.19, 35.16 2.16 C39.93 4.5, 44.84 9.9, 47.08 14.73 C49.31 19.57, 49.98 26.13, 48.57 31.17 C47.17 36.2, 43.12 41.99, 38.65 44.93 C34.18 47.88, 27 49.34, 21.75 48.83 C16.5 48.32, 10.79 45.64, 7.14 41.88 C3.49 38.12, 0.23 31.47, -0.14 26.26 C-0.51 21.05, 1.76 14.89, 4.93 10.61 C8.11 6.33, 16.51 2.11, 18.91 0.56 C21.31 -0.99, 19.15 0.87, 19.32 1.29 M29.62 0.43 C34.68 1.17, 40.15 5.55, 43.42 9.6 C46.69 13.65, 49.22 19.57, 49.25 24.74 C49.27 29.9, 46.95 36.51, 43.54 40.61 C40.14 44.71, 34.03 48.43, 28.84 49.33 C23.65 50.23, 16.96 48.75, 12.4 46.02 C7.84 43.3, 3.36 38.11, 1.48 32.99 C-0.39 27.86, -0.58 20.24, 1.16 15.26 C2.91 10.29, 7.44 5.64, 11.97 3.12 C16.5 0.61, 25.43 0.57, 28.36 0.2 C31.29 -0.17, 29.38 0.44, 29.53 0.91" stroke="#4dabf7" stroke-width="2" fill="none"></path></g><g transform="translate(87.55108240487243 22.17588386092939) rotate(0 6.80999755859375 12.5)"><text x="6.80999755859375" y="17.52" font-family="Virgil, Segoe UI Emoji" font-size="20px" fill="#4dabf7" text-anchor="middle" style="white-space: pre;" direction="ltr" dominant-baseline="alphabetic">3</text></g><g stroke-linecap="round" transform="translate(9.999999999998181 96.91588412210922) rotate(0 23.477688089757976 24.5)"><path d="M22.6 0.26 C27.45 -0.21, 34.18 1.86, 38.2 5.05 C42.22 8.24, 45.76 14.27, 46.72 19.39 C47.69 24.52, 46.34 31.13, 43.99 35.81 C41.64 40.49, 37.27 45.47, 32.64 47.48 C28 49.49, 20.96 49.42, 16.17 47.86 C11.39 46.29, 6.61 42.54, 3.93 38.1 C1.24 33.65, -0.5 26.42, 0.06 21.19 C0.63 15.96, 3.38 10.21, 7.33 6.7 C11.28 3.18, 20.88 1.21, 23.78 0.1 C26.69 -1.01, 24.83 -0.41, 24.76 0.04 M23.66 -0.03 C28.52 -0.41, 35.08 2.44, 38.95 5.93 C42.83 9.43, 46.02 15.74, 46.89 20.96 C47.75 26.18, 46.69 32.75, 44.14 37.24 C41.58 41.73, 36.41 46.29, 31.55 47.9 C26.69 49.51, 19.82 48.76, 14.99 46.89 C10.16 45.02, 5.14 41.16, 2.58 36.67 C0.02 32.19, -1.42 25.13, -0.36 19.97 C0.71 14.81, 4.88 9, 8.97 5.71 C13.06 2.42, 21.7 1, 24.17 0.22 C26.65 -0.55, 23.84 0.75, 23.81 1.07" stroke="#4dabf7" stroke-width="2" fill="none"></path></g><g transform="translate(27.286459297014517 109.09176798303861) rotate(0 6.089996337890625 12.5)"><text x="6.089996337890625" y="17.52" font-family="Virgil, Segoe UI Emoji" font-size="20px" fill="#4dabf7" text-anchor="middle" style="white-space: pre;" direction="ltr" dominant-baseline="alphabetic">9</text></g><g stroke-linecap="round" transform="translate(134.6141547953721 99.32054950747306) rotate(0 26.897534237347827 23.5)"><path d="M36.1 2.19 C41.42 3.43, 46.83 6.94, 49.62 11.19 C52.41 15.44, 53.57 22.65, 52.84 27.68 C52.12 32.71, 49.39 38.31, 45.28 41.37 C41.18 44.44, 34.12 45.86, 28.21 46.05 C22.3 46.24, 14.44 45.56, 9.82 42.53 C5.21 39.51, 1.46 32.94, 0.52 27.91 C-0.42 22.88, 1.42 16.67, 4.19 12.36 C6.95 8.05, 11.13 3.56, 17.13 2.05 C23.12 0.55, 35.6 2.64, 40.15 3.32 C44.71 4, 44.59 5.82, 44.43 6.12 M32.12 0.6 C37.42 1.56, 43.3 5.03, 47.09 9.09 C50.87 13.16, 54.73 19.81, 54.83 24.98 C54.93 30.16, 51.74 36.3, 47.68 40.14 C43.62 43.98, 36.27 47.63, 30.48 48.02 C24.69 48.41, 18.03 45.49, 12.93 42.48 C7.82 39.47, 1.64 34.49, -0.15 29.94 C-1.94 25.38, -0.09 19.64, 2.19 15.15 C4.47 10.65, 8.19 5.58, 13.54 2.95 C18.89 0.32, 31.23 -0.51, 34.27 -0.63 C37.31 -0.75, 31.9 1.38, 31.77 2.22" stroke="#4dabf7" stroke-width="2" fill="none"></path></g><g transform="translate(148.87126560842262 111.43392303182918) rotate(0 12.620994567871094 11.269617117759935)"><text x="12.620994567871094" y="15.795495352252239" font-family="Virgil, Segoe UI Emoji" font-size="18.031387388415798px" fill="#4dabf7" text-anchor="middle" style="white-space: pre;" direction="ltr" dominant-baseline="alphabetic">20</text></g><g stroke-linecap="round" transform="translate(193.31208637461168 196.68467262976583) rotate(0 25.563739179294316 25.591906329363837)"><path d="M36.52 3.37 C41.46 5.49, 47.37 10.98, 49.75 15.77 C52.12 20.56, 52.5 26.78, 50.76 32.11 C49.01 37.44, 43.99 44.64, 39.27 47.76 C34.56 50.88, 27.73 51.59, 22.48 50.84 C17.22 50.08, 11.49 47.14, 7.74 43.23 C4 39.33, 0.4 32.85, 0 27.41 C-0.4 21.97, 1.91 14.96, 5.36 10.58 C8.8 6.2, 14.57 1.96, 20.67 1.13 C26.77 0.3, 37.91 4.35, 41.98 5.62 C46.06 6.9, 45.61 8.59, 45.11 8.79 M26.18 0.03 C31.84 -0.24, 38.75 2.5, 42.92 6.14 C47.09 9.77, 50.23 16.65, 51.21 21.86 C52.2 27.06, 51.78 32.81, 48.83 37.37 C45.88 41.94, 38.76 47.02, 33.5 49.26 C28.23 51.5, 22.42 52.49, 17.22 50.83 C12.01 49.17, 4.93 44.36, 2.29 39.28 C-0.35 34.2, 0.52 25.64, 1.38 20.32 C2.24 15.01, 3.37 10.54, 7.47 7.4 C11.57 4.26, 23.22 2.85, 26 1.48 C28.77 0.11, 24.4 -1.18, 24.12 -0.82" stroke="#4dabf7" stroke-width="2" fill="none"></path></g><g transform="translate(213.41953497432405 209.68036845014558) rotate(0 5.379997253417969 12.5)"><text x="5.379997253417969" y="17.52" font-family="Virgil, Segoe UI Emoji" font-size="20px" fill="#4dabf7" text-anchor="middle" style="white-space: pre;" direction="ltr" dominant-baseline="alphabetic">7</text></g><g stroke-linecap="round" transform="translate(98.14355922690811 198.2369624332805) rotate(0 25.563739179294316 25.591906329363837)"><path d="M25.07 1.04 C30.16 0.44, 35.71 1.13, 39.86 4.32 C44 7.51, 48.61 14.81, 49.94 20.19 C51.28 25.56, 50.41 31.72, 47.89 36.56 C45.37 41.39, 39.81 46.86, 34.82 49.21 C29.83 51.56, 23.14 52.21, 17.94 50.65 C12.75 49.08, 6.7 44.37, 3.66 39.82 C0.62 35.28, -1.02 28.94, -0.29 23.38 C0.44 17.81, 3.46 10.34, 8.02 6.43 C12.59 2.53, 23.3 1, 27.11 -0.04 C30.93 -1.08, 30.86 -0.08, 30.89 0.21 M24 1.13 C28.73 0.91, 36.11 2.61, 40.53 5.99 C44.95 9.37, 49.3 15.91, 50.52 21.42 C51.73 26.93, 50.69 34.3, 47.81 39.05 C44.92 43.79, 38.1 47.89, 33.2 49.88 C28.3 51.87, 23.32 52.83, 18.4 51 C13.47 49.18, 6.79 43.84, 3.66 38.93 C0.52 34.03, -1.09 26.95, -0.4 21.57 C0.29 16.18, 3.61 10.09, 7.81 6.63 C12.01 3.17, 21.77 1.75, 24.8 0.79 C27.84 -0.17, 25.98 0.33, 26.02 0.85" stroke="#4dabf7" stroke-width="2" fill="none"></path></g><g transform="translate(114.74101331978454 211.23265825366025) rotate(0 8.889991760253906 12.5)"><text x="8.889991760253906" y="17.52" font-family="Virgil, Segoe UI Emoji" font-size="20px" fill="#4dabf7" text-anchor="middle" style="white-space: pre;" direction="ltr" dominant-baseline="alphabetic">15</text></g><g stroke-linecap="round"><g transform="translate(74.23508316900552 50.38760311046053) rotate(0 -19.97287065051387 22.771151836544277)"><path d="M0 0 C-9.39 11.22, -17.58 21.67, -39.95 45.54 M0 0 C-14.43 15.61, -28.2 31.68, -39.95 45.54" stroke="#4dabf7" stroke-width="2" fill="none"></path></g></g><mask></mask><g stroke-linecap="round"><g transform="translate(115.70066809857963 50.13435168172646) rotate(0 17.281795948279978 25.1328125831767)"><path d="M0 0 C5.53 11.5, 13.68 18.7, 34.56 50.27 M0 0 C9.69 12.84, 17.78 25.68, 34.56 50.27" stroke="#4dabf7" stroke-width="2" fill="none"></path></g></g><mask></mask><g stroke-linecap="round"><g transform="translate(145.7558031456283 145.3650788514501) rotate(0 -11.557088306599326 25.68075051379924)"><path d="M0 0 C-5.63 11.44, -13.02 24.79, -23.11 51.36 M0 0 C-5.95 12.86, -12.72 27.43, -23.11 51.36" stroke="#4dabf7" stroke-width="2" fill="none"></path></g></g><mask></mask><g stroke-linecap="round"><g transform="translate(182.95373318591737 141.53817345926473) rotate(0 16.806369083747995 27.09351582929594)"><path d="M0 0 C9.28 11.11, 14.99 23.21, 33.61 54.19 M0 0 C10.7 16.67, 19.44 32.64, 33.61 54.19" stroke="#4dabf7" stroke-width="2" fill="none"></path></g></g><mask></mask></svg>